<svg width="21" height="20" viewBox="0 0 21 20" fill="none" xmlns="http://www.w3.org/2000/svg">
  <path fill-rule="evenodd" clip-rule="evenodd" d="M10.9723 13.3496C9.12227 13.3496 7.62227 11.8506 7.62227 9.99961C7.62227 8.14961 9.12227 6.65061 10.9723 6.65061C12.8223 6.65061 14.3223 8.14961 14.3223 9.99961C14.3223 11.8506 12.8223 13.3496 10.9723 13.3496ZM10.9723 4.84961C8.12227 4.84961 5.82227 7.15061 5.82227 9.99961C5.82227 12.8496 8.12227 15.1506 10.9723 15.1506C13.8223 15.1506 16.1223 12.8496 16.1223 9.99961C16.1223 7.15061 13.8223 4.84961 10.9723 4.84961Z" fill="#333333"/>
  <path fill-rule="evenodd" clip-rule="evenodd" d="M19.1222 14.05C19.0722 15 18.9222 15.55 18.7722 15.901C18.5722 16.35 18.3722 16.7 18.0222 17.05C17.6722 17.401 17.3222 17.6 16.8722 17.8C16.5222 17.95 15.9722 18.1 15.0222 18.151C13.9722 18.2 13.6722 18.2 10.9722 18.2C8.27217 18.2 7.97217 18.2 6.92217 18.151C5.97217 18.1 5.42217 17.95 5.07217 17.8C4.62217 17.6 4.27217 17.401 3.92217 17.05C3.57217 16.7 3.37217 16.35 3.17217 15.901C3.02217 15.55 2.87217 15 2.82217 14.05C2.77217 13 2.77217 12.651 2.77217 10C2.77217 7.3 2.77217 7 2.82217 5.95C2.87217 5 3.02217 4.45 3.17217 4.1C3.37217 3.651 3.57217 3.3 3.92217 2.95C4.27217 2.6 4.62217 2.401 5.07217 2.2C5.42217 2.05 5.97217 1.901 6.92217 1.85C7.97217 1.8 8.27217 1.8 10.9722 1.8C13.6722 1.8 13.9722 1.8 15.0222 1.85C15.9722 1.901 16.5222 2.05 16.8722 2.2C17.3222 2.401 17.6722 2.6 18.0222 2.95C18.3722 3.3 18.5722 3.651 18.7722 4.1C18.9222 4.45 19.0722 5 19.1222 5.95C19.1722 7 19.1722 7.35 19.1722 10C19.1722 12.7 19.1722 13 19.1222 14.05ZM20.8722 5.85C20.8222 4.75 20.6722 4.05 20.4222 3.401C20.1722 2.75 19.8222 2.2 19.2722 1.651C18.7222 1.1 18.1722 0.75 17.5222 0.5C16.8722 0.25 16.1222 0.1 15.0722 0.05C14.0222 0 13.6722 0 10.9722 0C8.27217 0 7.92217 0 6.82217 0.1C5.72217 0.151 5.02217 0.3 4.37217 0.55C3.72217 0.8 3.17217 1.151 2.62217 1.7C2.07217 2.25 1.72217 2.8 1.47217 3.45C1.22217 4.1 1.07217 4.85 1.02217 5.901C0.972168 6.95 0.972168 7.3 0.972168 10C0.972168 12.7 0.972168 13.05 1.07217 14.151C1.12217 15.25 1.27217 15.95 1.52217 16.6C1.77217 17.25 2.12217 17.8 2.67217 18.35C3.22217 18.901 3.77217 19.25 4.42217 19.5C5.07217 19.75 5.82217 19.901 6.87217 19.95C7.92217 20 8.27217 20 10.9722 20C13.6722 20 14.0222 20 15.1222 19.901C16.2222 19.85 16.9222 19.7 17.5722 19.45C18.2222 19.2 18.7722 18.85 19.3222 18.3C19.8722 17.75 20.2222 17.2 20.4722 16.55C20.7222 15.901 20.8722 15.151 20.9222 14.1C20.9722 13.05 20.9722 12.7 20.9722 10C20.9722 7.3 20.9722 6.95 20.8722 5.85Z" fill="#333333"/>
  <path fill-rule="evenodd" clip-rule="evenodd" d="M16.3216 3.4502C15.6716 3.4502 15.1216 4.0002 15.1216 4.6502C15.1216 5.3002 15.6716 5.8492 16.3216 5.8492C16.9716 5.8492 17.5216 5.3002 17.5216 4.6502C17.5216 4.0002 16.9716 3.4502 16.3216 3.4502Z" fill="#333333"/>
</svg>
