<svg width="26" height="20" viewBox="0 0 26 20" fill="none" xmlns="http://www.w3.org/2000/svg">
  <path fill-rule="evenodd" clip-rule="evenodd" d="M25.5813 2.366C24.6743 2.765 23.7013 3.039 22.6813 3.162C23.7233 2.535 24.5253 1.546 24.9023 0.369C23.9253 0.946 22.8453 1.367 21.6963 1.595C20.7743 0.613 19.4633 0 18.0103 0C15.2203 0 12.9593 2.261 12.9593 5.051C12.9593 5.448 13.0033 5.832 13.0903 6.201C8.89829 5.988 5.17529 3.978 2.68529 0.923C2.25129 1.67 2.00029 2.537 2.00029 3.463C2.00029 5.215 2.89229 6.759 4.24629 7.666C3.41929 7.637 2.64129 7.413 1.95829 7.032C1.95729 7.053 1.95729 7.075 1.95729 7.097C1.95729 9.543 3.69829 11.585 6.00629 12.051C5.58429 12.164 5.13629 12.226 4.67629 12.226C4.35129 12.226 4.03528 12.195 3.72529 12.136C4.36729 14.143 6.23429 15.6 8.44129 15.641C6.71428 16.998 4.53729 17.804 2.17129 17.804C1.76429 17.804 1.36029 17.78 0.967285 17.731C3.20329 19.164 5.85729 20 8.70728 20C17.9963 20 23.0753 12.304 23.0753 5.633C23.0753 5.412 23.0693 5.195 23.0603 4.979C24.0483 4.269 24.9023 3.379 25.5803 2.367L25.5813 2.366Z" fill="#333333"/>
</svg>
